<svg width="329px" height="329px" viewBox="0 0 329 329" version="1.1" xmlns="http://www.w3.org/2000/svg" xmlns:xlink="http://www.w3.org/1999/xlink">
    <!-- Generator: Sketch 48.2 (47327) - http://www.bohemiancoding.com/sketch -->
    <desc>Created with Sketch.</desc>
    <defs></defs>
    <g id="Page-1" stroke="none" stroke-width="1" fill="none" fill-rule="evenodd">
        <path d="M183.689223,102.709509 L185.327038,102.709509 L206.357567,60.3205056 L193.753221,51.5864994 L168.073607,60.3205056 L138.387374,51.5864994 L119.99266,64.6435965 L143.761331,102.709509 L145.572923,102.709509 L73.6868278,201.797988 L73.6868278,220.549474 L73.6868278,243.009574 L107.090754,276.413501 L175.149399,276.413501 L222.171392,276.413501 L255.575318,243.009574 L255.575318,201.797988 L183.689223,102.709509 Z M164.5,329 C73.6491587,329 0,255.350841 0,164.5 C0,73.6491587 73.6491587,0 164.5,0 C255.350841,0 329,73.6491587 329,164.5 C329,255.350841 255.350841,329 164.5,329 Z" id="Combined-Shape" fill="#353846"></path>
        <path d="M192.922352,210.772831 C192.922352,218.50004 190.287161,224.620822 185.016701,229.13536 C179.74624,233.649898 172.029646,236.264091 161.866686,236.978018 L159.40995,249.513672 L150.590897,249.513672 L153.362599,236.852031 C144.585498,236.348083 137.131372,234.542295 131,231.434613 L131,214.678412 C139.315149,219.171952 147.798153,221.628664 156.449268,222.048621 L160.921788,201.764798 C154.076488,199.20306 149.016082,196.032433 145.740417,192.252819 C142.464753,188.473206 140.826945,183.979734 140.826945,178.772267 C140.826945,171.50701 143.493632,165.638199 148.827086,161.165657 C154.16054,156.693115 161.509678,154.141914 170.874719,153.511979 L173.079482,144 L181.835542,144 L179.756765,153.511979 C186.728052,154.435884 192.922325,156.325662 198.33977,159.18137 L191.662487,173.795801 C186.119055,171.06608 181.037651,169.512263 176.418124,169.134302 L172.44955,187.969279 C177.950987,190.11106 182.045506,192.200315 184.733231,194.237106 C187.420956,196.273898 189.457717,198.64662 190.843575,201.355342 C192.229433,204.064065 192.922352,207.203197 192.922352,210.772831 Z M165.205328,221.733654 C167.851057,221.355693 169.992805,220.410804 171.630638,218.898959 C173.26847,217.387113 174.087374,215.329355 174.087374,212.725622 C174.087374,210.793819 173.572934,209.208505 172.54404,207.969632 C171.515145,206.730759 170.265792,205.817366 168.795942,205.229426 L165.205328,221.733654 Z M167.662064,169.134302 C165.05833,169.428271 163.032068,170.28917 161.583217,171.717024 C160.134365,173.144878 159.40995,175.118646 159.40995,177.638389 C159.40995,180.956049 161.089753,183.286775 164.449409,184.630638 L167.662064,169.134302 Z" id="$-copy" fill="#353846"></path>
    </g>
</svg>